inDegrees=no
num_controls=7
num_derivatives=13
num_iterations=123
num_multipliers=7
num_parameters=0
num_slacks=7
num_states=26
objective=0.480007
objective_accelerations=0.039815
objective_balance=0.003555
objective_effort=0.037068
objective_height=0.393787
objective_ligament=0.005781
solver_duration=1719.312471
status=Solve_Succeeded
success=true
DataType=double
version=3
OpenSimVersion=4.5
endheader
time	/jointset/ground_pelvis/pelvis_tilt/value	/jointset/ground_pelvis/pelvis_tx/value	/jointset/ground_pelvis/pelvis_ty/value	/jointset/hip_l/hip_flexion_l/value	/jointset/hip_l/hip_adduction_l/value	/jointset/hip_l/hip_rotation_l/value	/jointset/back/lumbar_extension/value	/jointset/patellofemoral_l/patellar_flexion_l/value	/jointset/knee_l/knee_flexion_l/value	/jointset/knee_l/knee_adduction_l/value	/jointset/knee_l/knee_rotation_l/value	/jointset/ankle_l/ankle_angle_l/value	/jointset/subtalar_l/subtalar_angle_l/value	/jointset/ground_pelvis/pelvis_tilt/speed	/jointset/ground_pelvis/pelvis_tx/speed	/jointset/ground_pelvis/pelvis_ty/speed	/jointset/hip_l/hip_flexion_l/speed	/jointset/hip_l/hip_adduction_l/speed	/jointset/hip_l/hip_rotation_l/speed	/jointset/back/lumbar_extension/speed	/jointset/patellofemoral_l/patellar_flexion_l/speed	/jointset/knee_l/knee_flexion_l/speed	/jointset/knee_l/knee_adduction_l/speed	/jointset/knee_l/knee_rotation_l/speed	/jointset/ankle_l/ankle_angle_l/speed	/jointset/subtalar_l/subtalar_angle_l/speed	/forceset/tau_hip_flexion_l	/forceset/tau_hip_adduction_l	/forceset/tau_hip_rotation_l	/forceset/tau_knee_flexion_l	/forceset/tau_ankle_angle_l	/forceset/tau_subtalar_angle_l	/forceset/tau_lumbar_extension	lambda_cid13_p0	lambda_cid13_p1	lambda_cid13_p2	lambda_cid13_p3	lambda_cid13_p4	lambda_cid13_p5	lambda_cid14_p0	/jointset/ground_pelvis/pelvis_tilt/accel	/jointset/ground_pelvis/pelvis_tx/accel	/jointset/ground_pelvis/pelvis_ty/accel	/jointset/hip_l/hip_flexion_l/accel	/jointset/hip_l/hip_adduction_l/accel	/jointset/hip_l/hip_rotation_l/accel	/jointset/back/lumbar_extension/accel	/jointset/patellofemoral_l/patellar_flexion_l/accel	/jointset/knee_l/knee_flexion_l/accel	/jointset/knee_l/knee_adduction_l/accel	/jointset/knee_l/knee_rotation_l/accel	/jointset/ankle_l/ankle_angle_l/accel	/jointset/subtalar_l/subtalar_angle_l/accel	gamma_cid13_p0	gamma_cid13_p1	gamma_cid13_p2	gamma_cid13_p3	gamma_cid13_p4	gamma_cid13_p5	gamma_cid14_p0
0.5	-0.07878183745487702	-0.03429366570745679	0.8219893590437002	0.8613330402965889	-0.330074199920855	-0.09517517423661924	-0.7820287942663529	0.8621927235467417	0.8621927235467013	-0.1126293469352384	-0.1745173951924785	0.1393563438478911	0.009603952019310785	-0.08967539387504403	-0.1533806223424564	-0.3565997971365824	1.415577613905876	-0.03931424638876319	0.5258952697796236	-0.8434599788872368	1.625702867034303	1.625702867034373	0.1281755906691967	0.0001715474122369731	0.4099568360573276	0.09497698844554647	-0.2577510285529691	0.02665884271621616	-0.003567552076378444	-0.23730098686933	0.08048427967562964	0.04306607141725767	0.3184371338874175	-18.45252551643684	-17.27021810238574	4.352245697621523	-7.439374768662295	-702.2199791495495	-73.74742783226075	-12.11838917546216	0.2258224873656579	0.5962621031803821	-0.1556740229591195	-1.392155711788863	0.3026768211746039	-0.4556785813271464	1.75554833836231	-1.293771102689768	-1.29377110268977	-0.210756613132785	0.0136799722495868	-0.1817501032663215	0.3174127121610428	-1.540925959196479e-07	-3.985332666305491e-07	7.350319507547975e-07	2.428890918516471e-08	-1.729307196676529e-07	-1.88247911108889e-07	-1.435326086842583e-07
0.51	-0.0796671858967745	-0.03579761309084355	0.8184163821871594	0.8754169962751962	-0.3304528816346193	-0.08993906857890767	-0.7903746015067562	0.8783824122470444	0.8783824122469547	-0.1113598005208384	-0.1745152891292482	0.1434458148652625	0.0105685172618541	-0.08737953531597588	-0.1474053434808662	-0.3579125054026274	1.401007894287343	-0.0364268595623204	0.5212384827165377	-0.8256028933885068	1.611991245157408	1.611991245157428	0.1257445270986549	0.0002368027396894519	0.4078663912134776	0.09791187617705319	-0.263640756709259	0.02727942145322824	-0.003755357182600595	-0.2403802376512512	0.07914975191456838	0.04324766307771725	0.3244335349724598	-19.11161383219086	-17.18744141176076	4.286230741806778	-7.178665005339307	-706.3170870485616	-73.55442522741978	-11.48281348877657	0.2336645713912508	0.598699680852427	-0.1066483041252483	-1.520254740883449	0.2809464665509129	-0.4839339630891892	1.815575026353261	-1.44637033222367	-1.446370332231046	-0.2576779888418007	0.001204060745072399	-0.2333453876428703	0.2778343515543741	-1.761317629750206e-07	-2.424367910841842e-07	9.559511326381885e-07	6.693643610872889e-08	-1.912945330487438e-07	-1.589698792677098e-07	-1.537972296517212e-07
0.52	-0.08052913634683931	-0.03724169990497347	0.8148327624328183	0.889349080126817	-0.3308028541094851	-0.08475218183069537	-0.7985388806180275	0.8944276822081538	0.8944276822080467	-0.1101142440940418	-0.1745128793632405	0.147512250691654	0.01156169289129423	-0.08499579550834463	-0.1414085084910888	-0.3587283766966026	1.385203188508905	-0.03357239860899307	0.5160514878818468	-0.8071543530607822	1.59681911919914	1.596819119199111	0.1233775931350276	0.0002322879772254034	0.4053497978616856	0.100699065824914	-0.269530484865564	0.02790000019020577	-0.00394316228837512	-0.2434594884331964	0.07781522415349339	0.04342925473812738	0.3304299360574979	-19.77308071071354	-17.1047251090419	4.220771046015282	-6.954482544395101	-710.4793726041322	-73.40491845835938	-10.84527717194278	0.2433987370782857	0.6005733288178485	-0.05630662854514264	-1.639152943769685	0.2960916465515408	-0.561720135648191	1.87383930416119	-1.585871918964453	-1.585871918964387	-0.1979306917499158	-0.0002740457337362286	-0.2669798048547025	0.2878730954318702	-1.680925732467867e-07	-1.509841661829966e-07	9.743471791794105e-07	7.817207895003776e-08	-1.798576026714484e-07	-1.199551914043538e-07	-1.455278227648653e-07
0.53	-0.08136683663773196	-0.0386257353821021	0.8112434679265239	0.9031171037976304	-0.3311244835789428	-0.07961925441503263	-0.8065158472630563	0.9103141643622834	0.9103141643622806	-0.1088923579512123	-0.1745105432185629	0.1515515274355423	0.01258198767568513	-0.0825287300429287	-0.1353970916720206	-0.3590466233758284	1.368201631187289	-0.03076926660122681	0.510472328213101	-0.7881570062260557	1.580251370044168	1.580251370044115	0.120983416524455	0.0002268558935207002	0.4024443686009832	0.1033252794734761	-0.2750703288567455	0.02831205753209206	-0.004103122706433752	-0.246801432593925	0.07681539416333331	0.04348451934357008	0.3361233696474332	-20.32458747922022	-16.97941082558745	4.140537883058351	-6.766523765648474	-714.5113610132299	-73.21340861030552	-10.20767984904707	0.2506739424759819	0.6016669625739478	-0.007033279711611659	-1.760665413758912	0.2699240178535947	-0.5653949448415039	1.924977830947568	-1.726089414603419	-1.726089414607028	-0.2625883688461902	-0.001697998077988426	-0.3115010387817952	0.2447049189224173	-1.584016029151705e-07	-7.926394939015672e-08	9.706211246191265e-07	8.512350418056689e-08	-1.674863400725372e-07	-8.524734399503678e-08	-1.367106343723937e-07
